<?xml version="1.0" standalone="no"?>
<!DOCTYPE svg PUBLIC "-//W3C//DTD SVG 20010904//EN"
 "http://www.w3.org/TR/2001/REC-SVG-20010904/DTD/svg10.dtd">
<svg version="1.0" xmlns="http://www.w3.org/2000/svg"
 width="500.000000pt" height="500.000000pt" viewBox="0 0 500.000000 500.000000"
 preserveAspectRatio="xMidYMid meet">
<metadata>
Created by potrace 1.14, written by Peter Selinger 2001-2017
</metadata>
<g transform="translate(0.000000,500.000000) scale(0.100000,-0.100000)"
fill="#000000" stroke="none">
<path d="M0 2500 l0 -2500 2500 0 2500 0 0 2500 0 2500 -2500 0 -2500 0 0
-2500z m3202 985 c99 -8 203 -56 284 -129 128 -117 191 -243 201 -402 l6 -82
-131 -7 c-72 -4 -135 -5 -140 -1 -5 3 -12 32 -14 64 -10 105 -78 202 -178 253
-63 31 -167 32 -230 1 -115 -56 -170 -137 -178 -262 -5 -94 18 -152 94 -226
71 -70 119 -91 241 -104 173 -19 261 -58 374 -170 74 -72 116 -146 144 -255
32 -126 10 -311 -52 -428 -44 -82 -170 -202 -257 -243 -138 -65 -306 -79 -458
-36 -68 19 -221 99 -216 114 4 11 200 208 207 208 3 0 38 -11 76 -25 134 -47
259 -24 346 65 78 80 100 193 59 304 -39 104 -126 159 -287 181 -60 9 -132 26
-167 41 -82 34 -97 38 -105 28 -3 -5 -28 -26 -54 -48 l-49 -39 -37 37 c-50 49
-65 46 -16 -4 l39 -40 -13 -48 c-21 -74 -29 -139 -30 -242 -2 -136 -35 -230
-120 -338 -47 -59 -171 -146 -245 -172 -149 -53 -470 -52 -611 1 -157 58 -295
204 -345 364 -90 290 37 582 306 701 85 38 169 45 455 42 l264 -3 3 -142 3
-142 -283 -3 c-274 -3 -284 -4 -328 -26 -101 -53 -154 -135 -155 -242 0 -80
22 -143 68 -196 71 -81 96 -88 297 -92 160 -3 180 -2 230 18 63 25 113 68 143
125 16 32 22 67 28 170 4 72 13 150 20 175 18 61 70 148 113 189 l36 35 36
-38 c38 -39 54 -41 37 -3 -34 73 -34 74 3 103 33 27 34 28 17 53 -102 155
-131 356 -74 516 15 44 32 88 36 98 7 17 -12 18 -391 15 -445 -3 -434 -2 -509
-76 -52 -52 -85 -122 -92 -196 l-6 -63 -121 4 c-67 2 -130 3 -141 3 -16 0 -17
7 -12 78 13 163 64 276 172 384 101 101 199 145 350 158 92 7 1254 3 1357 -5z"/>
</g>
</svg>
