<?xml version="1.0" standalone="no"?>
<!DOCTYPE svg PUBLIC "-//W3C//DTD SVG 20010904//EN"
 "http://www.w3.org/TR/2001/REC-SVG-20010904/DTD/svg10.dtd">
<svg version="1.0" xmlns="http://www.w3.org/2000/svg"
 width="500.000000pt" height="500.000000pt" viewBox="0 0 500.000000 500.000000"
 preserveAspectRatio="xMidYMid meet">
<metadata>
Created by potrace 1.14, written by Peter Selinger 2001-2017
</metadata>
<g transform="translate(0.000000,500.000000) scale(0.100000,-0.100000)"
fill="#000000" stroke="none">
<path d="M0 2500 l0 -2500 2500 0 2500 0 0 2500 0 2500 -2500 0 -2500 0 0
-2500z m4880 0 l0 -2380 -2380 0 -2380 0 0 2380 0 2380 2380 0 2380 0 0 -2380z"/>
<path d="M2944 3420 c-28 -11 -297 -265 -397 -375 -142 -155 -180 -247 -158
-390 13 -89 54 -176 111 -236 22 -23 40 -44 40 -46 0 -1 -149 -3 -331 -3
l-331 0 7 -45 c3 -25 12 -62 19 -81 l12 -36 132 -5 c221 -8 362 22 496 107
l47 30 32 -24 c68 -52 159 -86 331 -125 29 -6 29 -6 -80 -117 -60 -60 -137
-132 -171 -160 -50 -39 -63 -55 -63 -76 0 -33 0 -33 71 -12 78 23 144 59 227
121 145 110 191 271 106 372 -17 21 -48 37 -102 55 -121 41 -229 141 -294 274
-32 64 -33 72 -33 182 0 167 8 181 229 400 97 96 176 181 176 188 0 14 -44 15
-76 2z"/>
<path d="M1869 3227 c-150 -73 -256 -164 -366 -311 -105 -140 -142 -219 -192
-411 -18 -68 -24 -225 -12 -323 28 -224 134 -437 300 -602 192 -192 401 -275
681 -274 160 2 281 29 408 93 66 34 166 101 149 101 -3 0 -43 -9 -89 -20 -111
-27 -263 -36 -369 -21 -404 59 -745 370 -829 756 -50 227 -19 481 81 676 58
113 181 260 271 324 97 70 91 72 -33 12z"/>
<path d="M2306 3039 c-108 -31 -109 -32 -84 -77 12 -20 23 -39 24 -41 4 -4
148 119 152 130 5 13 -14 10 -92 -12z"/>
</g>
</svg>
